/* XPM */
static char *_078_9be769127896e2217870dc21072c4551618d0406f34e5e61110b9758d598b0da[] = {
/* columns rows colors chars-per-pixel */
"50 50 2 1 ",
"  c white",
". c black",
/* pixels */
"                                                  ",
"                                                  ",
"                                                  ",
"                                                  ",
"                                                  ",
"                                                  ",
"                                                  ",
"                                                  ",
"                                                  ",
"                                                  ",
"                                                  ",
"                                                  ",
"                                                  ",
"                                                  ",
"                                                  ",
"                                           ..     ",
"                                          .. .    ",
"                .............             .  .    ",
"             ...            ....         .   .    ",
"           ...                 ...      ..   .    ",
"          ..   ..                 ...  ..    .    ",
"        ..    . .                   ....     .    ",
"       ..     ....                           .    ",
"       .                                     .    ",
"       .                                     .    ",
"       .             .                       .    ",
"       .          ...                        .    ",
"       ..     ....                           .    ",
"         .....                               .    ",
"          ....                  .......      .    ",
"             ...................      ...    .    ",
"                                        ... ..    ",
"                                          ..      ",
"                                                  ",
"                                                  ",
"                                                  ",
"                                                  ",
"                                                  ",
"                                                  ",
"                                                  ",
"                                                  ",
"                                                  ",
"                                                  ",
"                                                  ",
"                                                  ",
"                                                  ",
"                                                  ",
"                                                  ",
"                                                  ",
"                                                  "
};
