/* XPM */
static char *_64_3f7e9b0b3ecbccd487ebe6cbcdd1da68e7f0ad1df10fab69fe76aeb9b1130d08[] = {
/* columns rows colors chars-per-pixel */
"50 50 2 1 ",
"  c white",
". c black",
/* pixels */
"                                                  ",
"                     .........                    ",
"                ......       ....                 ",
"               ..                ..               ",
"              .  .. ..  ... .. ... ...            ",
"            ..   .  . .  .  .  . .  . ..          ",
"           ..    .. ...  .  .  ...  .   .         ",
"          .      .  . .  .  .. . .  .   ..        ",
"         .                               .        ",
"        .            . . ... .   . ....  ..       ",
"       ..            . . . . .. .. .      .       ",
"       .             ... . . . . . ..     .       ",
"      .              . . . . .   . .      .       ",
"      .              . . ... .   . ....    .      ",
"      .                                     .     ",
"     .              ..          ..          ..    ",
"     .              ...         . .          .    ",
"    .               . .         . .          .    ",
"   ..               . .        .  ..         ..   ",
"   .               ..  .       .   .          .   ",
"   .               .   ........    ..         .   ",
"    .           ....                ...       .   ",
"    .           .                     .       .   ",
"    .           .                     .       .   ",
"    .           .                     .       .   ",
"    .           .                     .       .   ",
"    .           .                     .       .   ",
"    .           .                     .       .   ",
"    .           .                     .       .   ",
"    .           .                     .       .   ",
"    .           .                     .       .   ",
"    .           .                     .       .   ",
"    .           .                     .       .   ",
"    .           .                     .       .   ",
"    .           .                     .       .   ",
"    .           .                     .       .   ",
"    .           .                     .       .   ",
"    .           .                     .       .   ",
"    .           .                     .       .   ",
"    ..          .......................       .   ",
"     .                                       ..   ",
"     .                                       .    ",
"     .                                      .     ",
"     .                                     ..     ",
"     ..                              .......      ",
"      ..                           ...            ",
"       ............     ............              ",
"                   .....                          ",
"                                                  ",
"                                                  "
};
