/* XPM */
static char *_586_c32297b399c6230968a9ccd9592b1d80b22c2afd71c5822677c61f9ac29e74ac[] = {
/* columns rows colors chars-per-pixel */
"50 50 2 1 ",
"  c white",
". c black",
/* pixels */
"..................................................",
".                                                .",
".                                                .",
".                                                .",
".                                                .",
".                                                .",
".                                                .",
".                                                .",
".                                                .",
".                                                .",
".                                                .",
".                                  .             .",
".                                 ..             .",
".                                 ...            .",
".             .                  .. .            .",
".            ...                 .  .            .",
".             ....              ..  ..           .",
".             .  .              .    .           .",
".             .  ...            .    .           .",
".             .    .            .   ..           .",
".             ..                .   .            .",
".             ..                                 .",
".                                                .",
".                                                .",
".                                                .",
".   ....................    ...................  .",
".   ....................    ...................  .",
".                                                .",
".                      .....                     .",
".                       ...                      .",
".                        .                       .",
".                      .. ..                     .",
".            ............ ................       .",
".              .........   ............          .",
".                                                .",
".                                                .",
".                                                .",
".                                                .",
".                                                .",
".                                                .",
".                                                .",
".                                                .",
".                                                .",
".                                                .",
".                                                .",
".                                                .",
".                                                .",
".                                                .",
".                                                .",
".................................................."
};
