/* XPM */
static char *_820_c595375c996c9e745b0900b49b073815388fe1a6f46fd66e05a4397f9d414b7a[] = {
/* columns rows colors chars-per-pixel */
"50 50 2 1 ",
"  c white",
". c black",
/* pixels */
"                                                  ",
"                                                  ",
"                                                  ",
"                                                  ",
"                                                  ",
"                                                  ",
"                                                  ",
"                                                  ",
"                                                  ",
"                                                  ",
"                                                  ",
"                                   .              ",
"                                  ..              ",
"                                  ...             ",
"              .                  .. .             ",
"             ...                 .  .             ",
"              ....              ..  ..            ",
"              .  ..             .    .            ",
"              .   ..            .    ..           ",
"             ..    ...  ...... ..     ..          ",
"             .       ....   ....       ..         ",
"            ..                          .         ",
"           ..                           ..        ",
"          ..       .            .        .        ",
"         ..       ...          ...       .        ",
"         .                               .        ",
"         .              ...              .        ",
"        ..               .               .        ",
"        .        ..      .      ..      .         ",
"        ..         ..   . .    .        .         ",
"         .          ....   ....         .         ",
"         .                              ..        ",
"         ...                            .         ",
"           ...                         .          ",
"             ..                       ..          ",
"              ...                   ...           ",
"                ....              ..              ",
"                   ....... ........               ",
"                         ...                      ",
"                                                  ",
"                                                  ",
"                                                  ",
"                                                  ",
"                                                  ",
"                                                  ",
"                                                  ",
"                                                  ",
"                                                  ",
"                                                  ",
"                                                  "
};
