/* XPM */
static char *_8962_3e8d0a2091494d5e5e38768c6a968e756712a9784ed73162b0eecc7ab6ed97fc[] = {
/* columns rows colors chars-per-pixel */
"50 50 2 1 ",
"  c white",
". c black",
/* pixels */
"                                                  ",
"                                                  ",
"                                                  ",
"                                                  ",
"                                                  ",
"                                                  ",
"                                                  ",
"                                                  ",
"                                                  ",
"                                                  ",
"                                                  ",
"                                   .              ",
"                                  ..              ",
"                                  ...             ",
"              .                  .. .             ",
"             ...                 .  .             ",
"              ....              ..  ..            ",
"              .  ..             .    .            ",
"              .   ..            .    .            ",
"              ..   ...  ...... ..    .            ",
"               .     ....   ....     .            ",
"               .                     .            ",
"               .                    ..            ",
"              ..                    .             ",
"              .    .            .   .             ",
"              .                     .             ",
"              .         ...         .             ",
"              .                    ..             ",
"               ..                ...              ",
"                 ...           ...                ",
"                   ....    .....                  ",
"                       .....                      ",
"                                                  ",
"                                                  ",
"                                                  ",
"                                                  ",
"                                                  ",
"                                                  ",
"                                                  ",
"                                                  ",
"                                                  ",
"                                                  ",
"                                                  ",
"                                                  ",
"                                                  ",
"                                                  ",
"                                                  ",
"                                                  ",
"                                                  ",
"                                                  "
};
