/* XPM */
static char *_7042_79be44142c72df14eb0c0e6da8d84c6358f2a4ea68af902c62e06fe1bbb6ecaf[] = {
/* columns rows colors chars-per-pixel */
"50 50 2 1 ",
"  c white",
". c black",
/* pixels */
"                                                  ",
"                                                  ",
"                                                  ",
"                                                  ",
"                                                  ",
"                                                  ",
"                                                  ",
"                                                  ",
"                                                  ",
"                                                  ",
"                                                  ",
"                                   .              ",
"                                  ..              ",
"                                  ...             ",
"              .                  .. .             ",
"             ...                 .  .             ",
"              ....              ..  ..            ",
"              .  ..             .    .            ",
"              .   ..            .    ..           ",
"              .    ...  ...... ..     .           ",
"              .      ....   ....      .           ",
"             ..                       .           ",
"             .                        .           ",
"             .     .            .     .           ",
"             .    . .          . .    .           ",
"            ..                        .           ",
"            .           ...           .           ",
"            .            .            .           ",
"            .            .            .           ",
"            ..     ..   . .    .     ..           ",
"             ..     ....   ....     ..            ",
"              ..                  ...             ",
"               ......         . ...               ",
"                    ....    ....                  ",
"                       ......                     ",
"                                                  ",
"                                                  ",
"                                                  ",
"                                                  ",
"                                                  ",
"                                                  ",
"                                                  ",
"                                                  ",
"                                                  ",
"                                                  ",
"                                                  ",
"                                                  ",
"                                                  ",
"                                                  ",
"                                                  "
};
