/* XPM */
static char *_7941_12adfe8a5165544b1cc630936897bd9c78e629960e3e6e665f9732e951f31161[] = {
/* columns rows colors chars-per-pixel */
"50 50 2 1 ",
"  c white",
". c black",
/* pixels */
"                                                  ",
"                                                  ",
"                                                  ",
"                                                  ",
"                                                  ",
"                                                  ",
"                                                  ",
"                                                  ",
"                                                  ",
"                                                  ",
"                                                  ",
"                                   .              ",
"                                  ..              ",
"                                  ...             ",
"              .        ......    .. .             ",
"             ...     ...    ...  .  .  .....      ",
"              ....  ..        ....  ....   ..     ",
"     ........ .  . ..           .    .      ..    ",
"   ...      . .  ...            .    .       ..   ",
"   .         ..    .            .   ..        .   ",
"  ..          ..                .   .         ..  ",
"  .            .                               .  ",
"  .                                            .  ",
" ..           ..........    .........          .  ",
" .            ..........    .........          .  ",
" .                                             .  ",
" .                                             .  ",
" .                                             .. ",
" .                     .....                    . ",
" .                      ...                     . ",
" .                       .                      . ",
" .                     .. ..                    . ",
" .               ........ .........             . ",
" .                  ....   .....                . ",
" ..                                             . ",
"  ..                                            . ",
"   .                                            . ",
"   .                                            . ",
"   .                                            . ",
"   .                                           .. ",
"   ..                                         ..  ",
"   ...                                        .   ",
"     ..                                      ..   ",
"      ..                                    ..    ",
"       ...                                 ..     ",
"         ....                            ..       ",
"            .........                  ...        ",
"                     ...................          ",
"                                                  ",
"                                                  "
};
