/* XPM */
static char *_2930_c76176e270f745171e19791f2e958b783a10346e8e802a4bff1de502da4ad114[] = {
/* columns rows colors chars-per-pixel */
"50 50 2 1 ",
"  c white",
". c black",
/* pixels */
"                                                  ",
"                                                  ",
"                                                  ",
"                                                  ",
"                                                  ",
"                                                  ",
"                                                  ",
"                                                  ",
"                                                  ",
"                                                  ",
"                                                  ",
"                                   .              ",
"                                  ..              ",
"                                  ...             ",
"              .                  .. .             ",
"             ...                 .  .             ",
"              ....              ..  ..            ",
"              .  ..     .....   .    ...          ",
"              .   ..  ..     ....    .  ...       ",
"         ......    ....         .   ..    ..      ",
"        ..    ..    .           .   .      ..     ",
"      ..       .    ..                      .     ",
"     ..            .            .           .     ",
"     .            ...          ...          .     ",
"    ..            ...          ...          .     ",
"    .                                       .     ",
"    .                                       .     ",
"    .                                       .     ",
"    .                  .....      .         .     ",
"    ..          ...     ...      ..         .     ",
"     ..          ...     .      ..         ..     ",
"      .            ..  .. ..   ..          .      ",
"      .             ..... ......           .      ",
"      .              ...   ....            .      ",
"      ..                                   .      ",
"       ..                                 ..      ",
"        ...                              ..       ",
"          ....                          ..        ",
"             .....                   ....         ",
"                 .....             ...            ",
"                     ....        ...              ",
"                        ..........                ",
"                                                  ",
"                                                  ",
"                                                  ",
"                                                  ",
"                                                  ",
"                                                  ",
"                                                  ",
"                                                  "
};
