/* XPM */
static char *_3319755c99e4f35c4c39120b2f23d1bk1iap84wlXPO4AoL[] = {
/* columns rows colors chars-per-pixel */
"50 50 256 2 ",
"   c black",
".  c #010101",
"X  c #020202",
"o  c gray1",
"O  c #040404",
"+  c gray2",
"@  c #060606",
"#  c #070707",
"$  c gray3",
"%  c #090909",
"&  c gray4",
"*  c #0B0B0B",
"=  c #0C0C0C",
"-  c gray5",
";  c #0E0E0E",
":  c gray6",
">  c #101010",
",  c #111111",
"<  c gray7",
"1  c #131313",
"2  c gray8",
"3  c #151515",
"4  c #161616",
"5  c gray9",
"6  c #181818",
"7  c #191919",
"8  c gray10",
"9  c #1B1B1B",
"0  c gray11",
"q  c #1D1D1D",
"w  c #1E1E1E",
"e  c gray12",
"r  c #202020",
"t  c gray13",
"y  c #222222",
"u  c #232323",
"i  c gray14",
"p  c #252525",
"a  c gray15",
"s  c #272727",
"d  c #282828",
"f  c gray16",
"g  c #2A2A2A",
"h  c gray17",
"j  c #2C2C2C",
"k  c #2D2D2D",
"l  c gray18",
"z  c #2F2F2F",
"x  c gray19",
"c  c #313131",
"v  c #323232",
"b  c gray20",
"n  c #343434",
"m  c #353535",
"M  c gray21",
"N  c #373737",
"B  c gray22",
"V  c #393939",
"C  c #3A3A3A",
"Z  c gray23",
"A  c #3C3C3C",
"S  c gray24",
"D  c #3E3E3E",
"F  c #3F3F3F",
"G  c gray25",
"H  c #414141",
"J  c gray26",
"K  c #434343",
"L  c #444444",
"P  c gray27",
"I  c #464646",
"U  c gray28",
"Y  c #484848",
"T  c #494949",
"R  c gray29",
"E  c #4B4B4B",
"W  c #4C4C4C",
"Q  c gray30",
"!  c #4E4E4E",
"~  c gray31",
"^  c #505050",
"/  c #515151",
"(  c gray32",
")  c #535353",
"_  c gray33",
"`  c #555555",
"'  c #565656",
"]  c gray34",
"[  c #585858",
"{  c gray35",
"}  c #5A5A5A",
"|  c #5B5B5B",
" . c gray36",
".. c #5D5D5D",
"X. c gray37",
"o. c #5F5F5F",
"O. c #606060",
"+. c gray38",
"@. c #626262",
"#. c gray39",
"$. c #646464",
"%. c #656565",
"&. c gray40",
"*. c #676767",
"=. c #686868",
"-. c DimGray",
";. c #6A6A6A",
":. c gray42",
">. c #6C6C6C",
",. c #6D6D6D",
"<. c gray43",
"1. c #6F6F6F",
"2. c gray44",
"3. c #717171",
"4. c #727272",
"5. c gray45",
"6. c #747474",
"7. c gray46",
"8. c #767676",
"9. c #777777",
"0. c gray47",
"q. c #797979",
"w. c gray48",
"e. c #7B7B7B",
"r. c #7C7C7C",
"t. c gray49",
"y. c #7E7E7E",
"u. c gray50",
"i. c #808080",
"p. c #818181",
"a. c gray51",
"s. c #838383",
"d. c #848484",
"f. c gray52",
"g. c #868686",
"h. c gray53",
"j. c #888888",
"k. c #898989",
"l. c gray54",
"z. c #8B8B8B",
"x. c gray55",
"c. c #8D8D8D",
"v. c #8E8E8E",
"b. c gray56",
"n. c #909090",
"m. c gray57",
"M. c #929292",
"N. c #939393",
"B. c gray58",
"V. c #959595",
"C. c gray59",
"Z. c #979797",
"A. c #989898",
"S. c gray60",
"D. c #9A9A9A",
"F. c #9B9B9B",
"G. c gray61",
"H. c #9D9D9D",
"J. c gray62",
"K. c #9F9F9F",
"L. c #A0A0A0",
"P. c gray63",
"I. c #A2A2A2",
"U. c gray64",
"Y. c #A4A4A4",
"T. c #A5A5A5",
"R. c gray65",
"E. c #A7A7A7",
"W. c gray66",
"Q. c #A9A9A9",
"!. c #AAAAAA",
"~. c gray67",
"^. c #ACACAC",
"/. c gray68",
"(. c #AEAEAE",
"). c #AFAFAF",
"_. c gray69",
"`. c #B1B1B1",
"'. c #B2B2B2",
"]. c gray70",
"[. c #B4B4B4",
"{. c gray71",
"}. c #B6B6B6",
"|. c #B7B7B7",
" X c gray72",
".X c #B9B9B9",
"XX c gray73",
"oX c #BBBBBB",
"OX c #BCBCBC",
"+X c gray74",
"@X c gray",
"#X c gray75",
"$X c #C0C0C0",
"%X c #C1C1C1",
"&X c gray76",
"*X c #C3C3C3",
"=X c gray77",
"-X c #C5C5C5",
";X c #C6C6C6",
":X c gray78",
">X c #C8C8C8",
",X c gray79",
"<X c #CACACA",
"1X c #CBCBCB",
"2X c gray80",
"3X c #CDCDCD",
"4X c #CECECE",
"5X c gray81",
"6X c #D0D0D0",
"7X c gray82",
"8X c #D2D2D2",
"9X c LightGray",
"0X c gray83",
"qX c #D5D5D5",
"wX c gray84",
"eX c #D7D7D7",
"rX c #D8D8D8",
"tX c gray85",
"yX c #DADADA",
"uX c gray86",
"iX c gainsboro",
"pX c #DDDDDD",
"aX c gray87",
"sX c #DFDFDF",
"dX c gray88",
"fX c #E1E1E1",
"gX c #E2E2E2",
"hX c gray89",
"jX c #E4E4E4",
"kX c gray90",
"lX c #E6E6E6",
"zX c #E7E7E7",
"xX c gray91",
"cX c #E9E9E9",
"vX c #EAEAEA",
"bX c gray92",
"nX c #ECECEC",
"mX c gray93",
"MX c #EEEEEE",
"NX c #EFEFEF",
"BX c gray94",
"VX c #F1F1F1",
"CX c gray95",
"ZX c #F3F3F3",
"AX c #F4F4F4",
"SX c gray96",
"DX c #F6F6F6",
"FX c gray97",
"GX c #F8F8F8",
"HX c #F9F9F9",
"JX c gray98",
"KX c #FBFBFB",
"LX c gray99",
"PX c #FDFDFD",
"IX c #FEFEFE",
"UX c white",
/* pixels */
"j { H.tXJXDX9Xw.0 5 < C.lXLXUXPXbX}.o.w O x c.qXZXIXPXBX9Xp.g o z |.ZXIXUXHX6XR % N /.mXPXIXmX{._ M ",
"E.+.x T J.S.Z C k.'.V $ ' >XcX:X5.b ! C.H.>.M m i.oX X9.l M 6.0.b b j.eXjX^._ s ` ' > 7.8X8X9.u W }.",
"GXlX'.D ; 8 ( |.BXJXkX`.P d ^ m N B.aXFXKXnX%X-.r 1 6 n d.3XMXCX9Xa.d K ' n ] ~.zXfXB.B n b l z.aXJX",
"LXtXr.s r w h j.tXHXUXVXI.s O e a.uXPXUXIXkXb.B d b t l u.dXIXUXPXgX0.= $ ! #XSXUXSXXX) 1 2 +.2XJXUX",
"OXC p f.3X;Xr.V U `.XXH.u L l.O.q %.7XjX$X9.4 9.6XdX5Xa.4 6.eXrX<Xz.r ~ &.B Y [.0XY.N A y.4.< K $XiX",
"a 9 R.BXIXPXMX|.F a $ f | 4XGXxXJ.j { E : r d.lXPXUXIXbXN.m L y 8 j 0.uXmX].x 9 g m ` :XAXNX_.n k l ",
"k Z <XUXUXUXUXHX|.g X C <XLXUXUXnXm.$.C $ 1 z.nXIXUXUXIXkXr.Z $ < %.dXIXUXHXR.0 2 +.*XHXUXUXZXc.q e ",
"K.x 0.dXIXUXUXCXL.x * M.FXUXUXUXPXpX9.< I +.D b.nXUXUXUXVXF.w j B I.NXUXIXfX%.3 d _.FXUXUXIXiX<.v T.",
"NXM.6 a.lXIXKXoXS R f { 2XKXUXUXbXh.D k.iXsXt.5 C.NXUXCX!.D #.D.Q M E.SXnXj.r *.N R ;XLXIXuX$.z D.BX",
"UXxXj.D k.bXaX' ~ =XY.N @.yXIXDXU.9 s.zXUXIXdX4.n Z.fXK.u o.eXFX4Xo.` 7X!.D s.sX].m *.pXkXy.y Y.CXIX",
"UXIXxXd.= n.P.a Q.FXVXU.V j.kX(.m @.iXIXUXUXUXdX9.z :.A -.0XPXUXGX~.Z 9.G X.tXIXCXK.Z s.u.D v.mXUXUX",
"UXUXIXgX9.l n Q eXUXUXcXs.h c.E ) 8XIXUXUXUXUXPX3XA % | yXPXUXUXUXfX] < g  XKXUXUXxX8.1 X p.bXIXUXUX",
"UXUXUXKX[.w - F.HXUXUXIXrXW 4 c }.JXUXUXUXUXUXDXE.u - @.gXUXUXUXUXsX` * C 3XIXUXUXVXs.4 5 n.VXUXUXUX",
"UXUXPX4X] l h e.vXUXUXUXnX>.# A 5XIXUXUXUXUXLX=XF ' 8.N H.ZXUXUXCXD.Z 3.d r.bXUXPX&Xx O.} C ^.SXUXUX",
"UXPX8X) x L.d., R.DXUXHX].m ~ b z.MXUXUXUXKX;XE U <XsX>.B :XPXUXeXK -.8Xc.V *XPXeX` Y >X9XX.a ^.FXUX",
"UXfX2.c  XFXiX+.H +XHXwX| W $Xu.b =XPXUXPX6XQ V }.HXPX:XK 5.zXUX#X9 ).JX2XG j.wXw.; ~.GXLX4X .I ;XLX",
"zXi.m F.CXUXPX<XF ) ].a.F ~.DX1XI -.gXLXwX3.l @XJXUXUXVXc.s $XGX!.t >XUXzX6.K :.z g.mXUXUXPX=XZ <.sX",
"S.1 x.MXUXUXUXGX}.E g h y.cXUXDXK.O E.8XL m H.CXUXUXUXUX1Xn X.:X7.h 5XUXJX{.l I L 6XIXUXUXUXZXG.C i.",
"P ;.fXUXUXUXUXUXSX8.@ j ;XPXUXUXpX) Q ,., Z.SXUXUXUXUXUXGXR.q R w 6.nXUXUXjX+.; f 1XUXUXUXUXUXnXi.- ",
": x.DXUXUXUXUXIXaXv   U xXUXUXUXGXE.e X   { LXUXUXUXUXUXUXpXD + & Y.UXUXUXPX_.3 & U.UXUXUXUXUXFXj.- ",
"V d.MXUXUXUXUXNXA.m n V /.DXUXUXPX=XG d X A 6XPXUXUXUXUXPXyX<., t =XIXUXUXDXR.r - p.NXUXUXUXJX>X~ ) ",
"w.a _.DXUXIXBXI.r 4.#X .M  XFXIXpX;.z .XK.F +.rXUXUXUXPXqX} i J g z.xXUXZXG.% J { x P.CXUXGX{.P Z '.",
"6X( L XXHXmXm.k =.pXJX=XQ L @XgX8.F L.ZXAXY.t 2.hXIXPXyX:.n /.0Xt.s l.xXXXH 1.qXeX*.r I.mX&XG W -XGX",
"LX2XE E OXZ.M w.aXIXUXKX;XG ] f.O N.BXUXUXNXC.k B.NXyX*.n J.VXIXfXw.d v.{ Y 5XPXPXrX$.F y.N E =XKXUX",
"UXHXXXD l : 3.gXIXUXUXUXDXE.l 0 ..dXUXUXUXUXkX8.Z R.5.9 I.VXUXUXUXyX[ a l E.DXUXUXPX4XD < K =XHXUXUX",
"UXUXvX>.* v &XPXUXUXUXUXUX7XZ $ ' iXIXUXUXUXIX7XT a c C.NXUXUXUXUXKXm.+ A qXUXUXUXPX3XG > V -XPXUXUX",
"UXGX}.p I m l.NXUXUXUXUXZXJ.M =.V y.kXUXUXUXUXxX=.o x -XPXUXUXUXUXZXz.5 q XXLXUXIXrX..x u.x +.yXPXUX",
"JX@XD ) +Xy.s +XPXUXUXKX@Xj ;.6Xv.d V.VXUXUXCXG.M _ d u.cXUXUXUXUXxX5.l F E 3XJXpX0.y /.nXE.G 5.lXUX",
"pX@.H ,XKX7XR W 8XUXPX8X/ D :XKXgX2.h .XHXGX.Xc >.6Xx.V D.MXIXUXPX=XZ w.!.i 4.|.%.V N.BXUXBXC.& A.SX",
"K.F T.DXUXJX].q l.vXwX7.f XXKXUXUX4XH %.|.L.x ~ 6XLXhX2., v.vXKXpXq.c ,XNXB.B ..n N.nXIXUXUXhX,.F -X",
"*XK.bXUXUXUXcXq.F B.Y b C.BXUXUXUXSXU.v 3 a X.4XKXUXIXgXy.S C. X#.C n.VXUXwXL 4 c >XIXUXUXUXIX:Xm g.",
"].jXPXUXUXUXIX,XA B 1 l.BXUXUXUXUXUXcXO.. | lXPXUXUXUXIXyXX.h l q l.vXIXUXKXQ.9 > /.UXUXUXUXUXaXX.K ",
"N V.VXUXUXUXUXjX..= o p.LXUXUXUXUXVXH.* X 2.HXUXUXUXUXUXNXq.: % - u.MXUXUXDXM.= # Z.IXUXUXUXUX3Xa 6 ",
",.c {.GXUXUXJX+XU x q I ,XKXUXIXvXG.G ` g P '.BXIXUXUXGX$XQ / F.@.q I.NXAX(.h v s 2.aXUXUXUXDXP.< G.",
"<XQ K +XHXPX4XR H {.`.P D >XHXiX0.* 1.wX.X) c b.cXUXDX{.P A }.FXyX=.N Z.^.J } OXM.a q.lXIXLX-XI #.gX",
"LX,XI | 0XsX&.F +XHXJX+Xx 9.[.{ C V.lXPXJXtXw.x t.qX!.l ( ,XHXUXPXiX2.g D Q 4XKXmXx.g A.VXgX>.F :XPX",
"UXFX^.H #.e.f L.DXUXUXVXv.v n V (.CXUXUXUXIXxXx.7 U b ..<XJXUXUXUXPXXXr 1 x.AXUXUXgX4.A R.z.n F.ZXUX",
"UXUXCXG.: 2 @.jXUXUXUXIX1Xz : H.HXUXUXUXUXUXIXlX<.& j [.LXUXUXUXUXSXB.@ w | tXIXUXIX0X_ 9 , =.jXUXUX",
"UXUXFX+XD ; @.tXPXUXUXUX1Xv 9 i.mXUXUXUXUXUXDX^.h b 8 $.rXPXUXUXPX-XH ;.Z.m f.vXUXUXJX^.p 2 4.xXUXUX",
"UXSXW.z k } i X.9XLXUXnXb.n ) 0 Z.bXIXUXUXGX.XG ] =XI.S $.6XKXUXcXt.Z ,XxXj.c W.mXPXpX5.l O.1 G.ZXUX",
"HX{.Z  .,XxX~.z [ OX,Xn.r 3.:X3.A p.lXUXFX'.N ! 2XLXZXU.x E &XlXZ.N f.NXIXrX[ g 8.2X<.b V.9X,.B '.HX",
"+Xd ' 8XPXUXAX).J t > ; ) 6XLXlXl., N.gXT.Z / =XKXUXUXFX$XH G =.7 } yXIXUXLX8X*.Y ..7 A.MXIX7XW ~ ,X",
"^ v %XLXUXUXUXAX^.k X 3.lXLXUXIXaX+.F ) * c ;XLXUXUXUXUXHX`.g 4 x @XPXUXUXUXaXT 4 g C.NXUXUXAXc.e P ",
"% <.vXUXUXUXHX&Xx e % } wXKXUXUXKX.Xx , X j .XCXIXUXUXUXPX>Xv - = z.mXIXUXJX%Xp O H 0XIXUXHX,XD 6 < ",
"R C !.DXUXZX`.I S ^.h.v ( .XVXLXlXE.S v :.E b z.yXLXUXJX0X8.x B.O.d x.dXBX{.[ i 6 5 4.6XvX].( D W.4X",
"7X| x `.sXJ.g ( :XJXZXoXP d f.)...y { ;XZXyXi.s Q ].0XR.R b V.BXdXy.n ..y.h ^ E.>XB.Z m _ p ^ XXDXUX",
"LX8X_ 9 S i :.eXLXUXUXJX:XX.5 * f D.hXLXUXIXNX$XE + t 2 Q oXCXUXIXxXv.0 % Y ,XFXIXAX'.b + a D.vXIXUX",
"PXkXg.9 ; P (.fXVXGXMX6Xw.a g f c s.wXBXFXJXMX5X1.9 2 5 B c.9XbXlX].R h j i n.pXFXaX<.N 1.I 1 w.qXDX",
"2X*.t @.r.n 9 D 8.K.&.N x c.9X7Xa.4 G w.Z._.3.v C h.+X X3.M z #.) h ^ +X4X0.b ~ M.<.* C.nXpXc.Z B S.",
"u C Z.jXZXpX[.6.n % & <.8XAXIXIXCX;XX.n 5 d L c.7XAXPXKXMX6Xr.h 5 :.tXKXIXcXF.d : x S.BXUXUXZX-X,.N "
};
